# xmcd
#
# Track frame offsets:
# 150
# 18523
# 33831
# 50736
# 68299
# 84520
# 102136
# 115533
# 135835
# 149495
# 167767
# 184805
# 203449
# 228845
#
# Disc length: 3065 seconds
#
# Revision: 1
# Processed by: cddbd v1.5.1PL0 Copyright (c) Steve Scherf et al.
# Submitted via: Easy CD Ripper v2.35
#
DISCID=a70bf70e
DTITLE=Keri Noble - Fearless
DYEAR=2005
DGENRE=Blues
TTITLE0=Look At Me - Keri Noble
TTITLE1=Talk To Me - Keri Noble
TTITLE2=Piece of My Heart - Keri Noble
TTITLE3=A Dream About You - Keri Noble
TTITLE4=About Me - Keri Noble
TTITLE5=Let It Rain - Keri Noble
TTITLE6=Falling - Keri Noble
TTITLE7=Love Is All I Know - Keri Noble
TTITLE8=Answered Prayer - Keri Noble
TTITLE9=Bartender - Keri Noble
TTITLE10=I Won't - Keri Noble
TTITLE11=If No One Will Listen - Keri Noble
TTITLE12=Honest - Keri Noble
TTITLE13=Unknown
EXTD=She's great
EXTT0=She's Great
EXTT1=
EXTT2=
EXTT3=
EXTT4=
EXTT5=
EXTT6=
EXTT7=
EXTT8=
EXTT9=
EXTT10=
EXTT11=
EXTT12=
EXTT13=
PLAYORDER=
